<?xml version="1.0" encoding="utf-8"?>
<!-- Generator: Adobe Illustrator 23.1.0, SVG Export Plug-In . SVG Version: 6.00 Build 0)  -->
<svg version="1.1" id="Layer_1" xmlns="http://www.w3.org/2000/svg" xmlns:xlink="http://www.w3.org/1999/xlink" x="0px" y="0px"
	 viewBox="0 0 24 24" style="enable-background:new 0 0 24 24;" xml:space="preserve" fill="rgba(255,255,255,.5)">
<path d="M4.6,6h0.8C5.7,6,6,6.3,6,6.6v10.8C6,17.7,5.7,18,5.4,18H4.6C4.3,18,4,17.7,4,17.4V6.6C4,6.3,4.3,6,4.6,6z M13.6,11H8.4
	C8.2,11,8,11.2,8,11.4v1.2C8,12.8,8.2,13,8.4,13h5.2c0.2,0,0.4,0.2,0.4,0.4V17c0,0.4,0.4,0.5,0.7,0.3l5-5c0.2-0.2,0.2-0.4,0-0.6
	l-5-5C14.4,6.4,14,6.6,14,7v3.6C14,10.8,13.8,11,13.6,11z"/>
</svg>
