<svg id="Layer_1" data-name="Layer 1" xmlns="http://www.w3.org/2000/svg" viewBox="0 0 541.79 61.2" fill='#fff'><title>Untitled-1</title><path d="M15.8,60.16c-2,0-3.9.07-5.8.18s-3.9.28-6,.47V58.65q3.74-.07,5.33-1.29c1-.82,1.58-2.35,1.58-4.61V14.8c0-2.25-.49-3.78-1.47-4.57S6.7,9,4.21,9V6.81c2.11.24,4.15.45,6.12.61a38.34,38.34,0,0,0,6,0l10.37-.79q7.2.36,11.16,3.56t4,9a13.36,13.36,0,0,1-.65,4.1,11.4,11.4,0,0,1-2,3.75,13.6,13.6,0,0,1-3.53,3,16.46,16.46,0,0,1-5,1.94,21.56,21.56,0,0,1,5.51,1.12,14,14,0,0,1,4.46,2.52,11.42,11.42,0,0,1,4.07,9q0,8-5.83,11.74t-17,3.74Zm4.53-29,2-.15A12.39,12.39,0,0,0,27,29.82,7.78,7.78,0,0,0,30,27.22a10.22,10.22,0,0,0,1.51-3.74,23.14,23.14,0,0,0,.44-4.64,9.7,9.7,0,0,0-1.66-5.73,9.54,9.54,0,0,0-4-3.35l-5.91.87Zm0,3.38V56.78c4.51.19,8-.59,10.44-2.34s3.68-4.88,3.68-9.4c0-3.21-.61-5.66-1.8-7.34A10.57,10.57,0,0,0,27.46,34Z" transform="translate(-3.99 -0.55)"/><path d="M58.13,61.68a11.36,11.36,0,0,1-3.71-1.55,10.64,10.64,0,0,1-2.59-2.45,9.41,9.41,0,0,1-1.51-3.06,12.2,12.2,0,0,1-.47-3.31,18.33,18.33,0,0,1,.4-4.07,9.82,9.82,0,0,1,1.19-3.06l18.07-6V34.75a26.13,26.13,0,0,0-.29-4.18,10.46,10.46,0,0,0-.83-2.84,6.66,6.66,0,0,0-1.22-1.8,4.89,4.89,0,0,0-1.55-1.05l-2.81,1a13.86,13.86,0,0,0-5,3.21,20.48,20.48,0,0,0-4,6.15H51.94A20.46,20.46,0,0,0,53,31.11a27.53,27.53,0,0,0,.29-3.92c0-.77,0-1.51-.07-2.23a12.1,12.1,0,0,0-.44-2.38h1.59a3.72,3.72,0,0,0,1,1.76A2.69,2.69,0,0,0,57,25.39l11.38-3.75a11.06,11.06,0,0,1,3.52.94A10.17,10.17,0,0,1,75.2,25a12.23,12.23,0,0,1,2.44,4.21,18.9,18.9,0,0,1,.94,6.41V46.05c0,1.78,0,3.27,0,4.47a22.93,22.93,0,0,0,.21,3,7.44,7.44,0,0,0,.47,1.84,1.57,1.57,0,0,0,.79.86A8.23,8.23,0,0,0,82,54.58c.63-.69,1.25-1.45,1.88-2.26l1,.86a18.11,18.11,0,0,1-1.9,2.48c-.8.89-1.64,1.76-2.52,2.6a18.52,18.52,0,0,1-2.74,2.16,8.54,8.54,0,0,1-2.63,1.18,4,4,0,0,1-1.87-.79,9,9,0,0,1-1.55-1.47,10,10,0,0,1-1.15-1.73,6.44,6.44,0,0,1-.61-1.55c-1.11.72-2.29,1.42-3.57,2.09s-2.47,1.27-3.6,1.8-2.11.95-3,1.26A6.66,6.66,0,0,1,58.13,61.68ZM63,57.07a13.07,13.07,0,0,0,1.37-.51l1.83-.79c.65-.29,1.27-.6,1.87-.93a13.43,13.43,0,0,0,1.48-.94V40.44l-8.71,3a4.37,4.37,0,0,0-1.3,2.34,14.23,14.23,0,0,0-.5,3.85A10.71,10.71,0,0,0,60,54.19,5.62,5.62,0,0,0,63,57.07Z" transform="translate(-3.99 -0.55)"/><path d="M120.92,51.67A11.26,11.26,0,0,1,119.15,54a24.74,24.74,0,0,1-4.35,3.57,13.58,13.58,0,0,1-2,1l-2.45,1.08a19,19,0,0,1-3.74,1.33,13,13,0,0,1-2.52.26,17.64,17.64,0,0,1-6.7-1.26,15.74,15.74,0,0,1-5.36-3.57,16,16,0,0,1-3.53-5.58,20.4,20.4,0,0,1-1.26-7.38,24.3,24.3,0,0,1,1-7.34,20.2,20.2,0,0,1,2.59-5.44A18.05,18.05,0,0,1,94.28,27a15.62,15.62,0,0,1,3.45-2.16l2.52-1.08c1.25-.57,2.44-1.08,3.57-1.51a8.51,8.51,0,0,1,3-.65,11.08,11.08,0,0,1,7.67,2.81A15.65,15.65,0,0,1,119,32a12.18,12.18,0,0,0,1.08,2.88A2.87,2.87,0,0,0,121.56,36v2.09l-25,4.75q.57,6.91,3.74,10.44a10.92,10.92,0,0,0,8.57,3.53c.53,0,1.07,0,1.62-.07s1.09-.12,1.62-.22a10.37,10.37,0,0,0,3.17-2.7,19.22,19.22,0,0,0,2.52-3.92Zm-9.65-14.26A19.72,19.72,0,0,0,108.78,29a6.65,6.65,0,0,0-6.08-3,12.71,12.71,0,0,0-1.3.08c-.48,0-1,.12-1.51.21a18.32,18.32,0,0,0-2.7,6.45,28.49,28.49,0,0,0-.68,7.38Z" transform="translate(-3.99 -0.55)"/><path d="M149.14,37l12.38,16.78c.72,1,1.37,1.76,1.95,2.41a8.55,8.55,0,0,0,1.76,1.55,6.88,6.88,0,0,0,2.05.86,11.51,11.51,0,0,0,2.74.29v1.94l-2.56-.18c-1-.07-2.13-.13-3.31-.18l-3.49-.11-3,0c-1.88,0-3.44,0-4.68.11s-2.57.2-4,.39V58.87a6.2,6.2,0,0,0,2.8-.43,1.26,1.26,0,0,0,.72-1.08,2.39,2.39,0,0,0-.54-1.44l-1.18-1.59L141.08,40.8V54.4c0,1.11,0,2,0,2.56a2,2,0,0,0,.43,1.33,2,2,0,0,0,1.37.51c.65,0,1.62.07,2.92.07v1.94c-1.73-.19-3.26-.32-4.57-.39s-2.92-.11-4.79-.11-3.81,0-5.94.11-4.07.2-5.8.39V58.87c1.3,0,2.39,0,3.28-.07a5.52,5.52,0,0,0,2.19-.51A2.59,2.59,0,0,0,131.46,57a6.43,6.43,0,0,0,.4-2.56V14.23a4.9,4.9,0,0,0-.4-2.09c-.26-.58-1-.86-2.05-.86h-4.89V9.84a27,27,0,0,0,4.64-.44A34.61,34.61,0,0,0,134,8.22a25.49,25.49,0,0,0,4.25-1.8,8.6,8.6,0,0,0,2.85-2.34V40l11.23-10.22a16.58,16.58,0,0,0,2.12-2.41,2.94,2.94,0,0,0,.47-1.55c0-.48-.32-.86-1-1.15a9.54,9.54,0,0,0-3.28-.51V22.29c1.44.24,2.9.41,4.39.51s2.93.14,4.32.14,2.71-.06,4.25-.18,2.88-.28,4-.47v1.87a11.85,11.85,0,0,0-3.7.51A12.48,12.48,0,0,0,161.13,26a14.56,14.56,0,0,0-2.38,1.88c-.74.72-1.55,1.51-2.41,2.37Z" transform="translate(-3.99 -0.55)"/><path d="M178.66.55a11.13,11.13,0,0,0,2.73,4.32,10.67,10.67,0,0,0,4.76,2.73,6.05,6.05,0,0,0-3.35,2.6Q181.54,12.14,180,15a67.68,67.68,0,0,1-4,6.37,38.15,38.15,0,0,1-6.73,7.17,35.21,35.21,0,0,0,3.81-6.7,22.8,22.8,0,0,0,1.77-6.26,10,10,0,0,0-.58-5,5.37,5.37,0,0,0-3.27-3,11.43,11.43,0,0,0,4.78-2.73A10.59,10.59,0,0,0,178.66.55Z" transform="translate(-3.99 -0.55)"/><path d="M195.87,26a3.63,3.63,0,0,0-.44,1.41c0,.5-.07,1.09-.07,1.76a5,5,0,0,0,.51,2.34,5.78,5.78,0,0,0,1.58,1.84,16.22,16.22,0,0,0,2.7,1.69c1.08.55,2.36,1.16,3.85,1.84a46.25,46.25,0,0,1,5,2.55,17.27,17.27,0,0,1,3.49,2.7,9.39,9.39,0,0,1,2.09,3.24,11.63,11.63,0,0,1,.68,4.18,8.79,8.79,0,0,1-.57,3.2,11.92,11.92,0,0,1-1.37,2.59,10.7,10.7,0,0,1-1.66,1.88c-.57.5-1,.87-1.36,1.11l-2.09,1.37a9.66,9.66,0,0,1-2.88,1.22,13,13,0,0,1-3.31.44,23,23,0,0,1-5-.58,15.8,15.8,0,0,1-4.71-1.8,3.17,3.17,0,0,0-1.34,1.19,4.47,4.47,0,0,0-.68,1.62h-1.58a15.25,15.25,0,0,0,.46-2.7c.08-.89.11-1.81.11-2.77a32.63,32.63,0,0,0-.25-4,36.43,36.43,0,0,0-.9-4.61h1.51A14.45,14.45,0,0,0,192,51.78a17.45,17.45,0,0,0,3.5,3.16A16.53,16.53,0,0,0,199.57,57a12.89,12.89,0,0,0,4.14.72,13.91,13.91,0,0,0,2.34-.15,9,9,0,0,0,1.62-.43,4.45,4.45,0,0,0,1-1.94,8.85,8.85,0,0,0,.29-2.09,6.33,6.33,0,0,0-.47-2.52,5.84,5.84,0,0,0-1.51-2,15,15,0,0,0-2.59-1.8c-1-.57-2.27-1.22-3.71-1.94l-4.21-2.13a19.61,19.61,0,0,1-3.67-2.37,10.44,10.44,0,0,1-2.6-3.17,9.44,9.44,0,0,1-1-4.43,10,10,0,0,1,.94-4.17,7.72,7.72,0,0,1,3.17-3.46l2.8-1.73a12.05,12.05,0,0,1,3-1.26,11.92,11.92,0,0,1,3.24-.47,16.49,16.49,0,0,1,4.57.54A22.52,22.52,0,0,1,210,23.3a1.49,1.49,0,0,0,1-.65,4,4,0,0,0,.64-1.37H213a14.75,14.75,0,0,0-.36,2.42c0,.79-.07,1.59-.07,2.41a30.28,30.28,0,0,0,1.08,7.7h-1.44a14.19,14.19,0,0,0-4.57-6.12,11.88,11.88,0,0,0-7.53-2.45A12.75,12.75,0,0,0,195.87,26Z" transform="translate(-3.99 -0.55)"/><path d="M278.09,20.2a15.36,15.36,0,0,1-2,8.25,16.17,16.17,0,0,1-5.37,5.29,23.54,23.54,0,0,1-7.52,2.88,51.14,51.14,0,0,1-8.61,1V52.82a9.86,9.86,0,0,0,.33,2.77,3.21,3.21,0,0,0,1.26,1.8,5.94,5.94,0,0,0,2.48,1,22.33,22.33,0,0,0,4.07.29v2.16q-3.17-.29-6.34-.39c-2.11-.08-4.15-.11-6.12-.11s-4,0-5.94.11-4,.2-6.08.39V58.65a16.12,16.12,0,0,0,3.42-.29,4.59,4.59,0,0,0,2.12-1,3.37,3.37,0,0,0,1.08-1.8,11.22,11.22,0,0,0,.29-2.84V14.8a13.16,13.16,0,0,0-.25-2.84,3.14,3.14,0,0,0-1-1.76,4.54,4.54,0,0,0-2-.94A16.19,16.19,0,0,0,238.42,9V6.81q3.17.36,5.79.58a42.77,42.77,0,0,0,5.58.07l12.31-.72a29.58,29.58,0,0,1,6.16,1,15.94,15.94,0,0,1,5.11,2.45,11.53,11.53,0,0,1,3.46,4.07A12.76,12.76,0,0,1,278.09,20.2Zm-23.55-9.43V34a23,23,0,0,0,6.16-1,10,10,0,0,0,4.14-2.44,9.5,9.5,0,0,0,2.3-4.11,21.78,21.78,0,0,0,.72-6,14.1,14.1,0,0,0-1.36-6.66,10,10,0,0,0-3.89-4Z" transform="translate(-3.99 -0.55)"/><path d="M305.23,59.66q-1.22.57-2,.9a11,11,0,0,1-1.33.5,4.79,4.79,0,0,1-1.22.22c-.43,0-1,0-1.66,0A18.78,18.78,0,0,1,291.88,60a15.34,15.34,0,0,1-5.58-3.78,17.31,17.31,0,0,1-3.6-5.86,21,21,0,0,1-1.3-7.53,19.76,19.76,0,0,1,1.12-6.91,21.51,21.51,0,0,1,2.73-5.26,18.79,18.79,0,0,1,7-5.9l3-1.44q1.21-.57,2-.9a12.2,12.2,0,0,1,1.33-.5,5.27,5.27,0,0,1,1.22-.22c.44,0,1,0,1.66,0A18.42,18.42,0,0,1,308.65,23a15.94,15.94,0,0,1,5.58,3.82,17.35,17.35,0,0,1,3.6,5.87,21.14,21.14,0,0,1,1.3,7.59A19.47,19.47,0,0,1,318,47.13a20.13,20.13,0,0,1-2.77,5.22A19.36,19.36,0,0,1,311.71,56a17.25,17.25,0,0,1-3.45,2.2Zm1.23-2.88A17.52,17.52,0,0,0,309,50.23a42,42,0,0,0,.79-8,26.27,26.27,0,0,0-.76-6.52,15.63,15.63,0,0,0-2.26-5.15,10.74,10.74,0,0,0-3.86-3.38A11.84,11.84,0,0,0,297.31,26c-.53,0-1.05,0-1.58.08s-1.08.12-1.66.21a12.26,12.26,0,0,0-1.47,2.92,30.38,30.38,0,0,0-1.05,3.6,30.83,30.83,0,0,0-.61,4c-.12,1.4-.18,2.74-.18,4a26.48,26.48,0,0,0,.76,6.58,15.35,15.35,0,0,0,2.27,5.15,10.28,10.28,0,0,0,3.85,3.35,12,12,0,0,0,5.51,1.19c.52,0,1.06,0,1.62-.07S305.88,56.88,306.46,56.78Z" transform="translate(-3.99 -0.55)"/><path d="M339.72,54.4a6,6,0,0,0,.43,2.56,2.74,2.74,0,0,0,1.41,1.33,7,7,0,0,0,2.52.51c1,0,2.31.07,3.85.07v1.94c-.87,0-1.84-.11-2.92-.18s-2.19-.13-3.35-.18l-3.42-.11-3.06,0q-2.73,0-6,.18l-5.76.32V58.87c1.25,0,2.33,0,3.24-.07a5.69,5.69,0,0,0,2.23-.51A2.63,2.63,0,0,0,330.18,57a6.36,6.36,0,0,0,.4-2.52V30.14a4.77,4.77,0,0,0-.4-2.09c-.26-.53-.95-.79-2.05-.79h-5V25.75a41.89,41.89,0,0,0,4.68-.29,32.91,32.91,0,0,0,4.82-.9,25.15,25.15,0,0,0,4.22-1.51,7.11,7.11,0,0,0,2.84-2.2V31.51l6.7-9.87a12.26,12.26,0,0,1,3.74.44A7.3,7.3,0,0,1,353,23.44a2.25,2.25,0,0,0,1.47-.36,3.16,3.16,0,0,0,1.05-1h1.44a15.59,15.59,0,0,0-2.81,5.29,24.6,24.6,0,0,0-.94,7.74h-1.51A12.12,12.12,0,0,0,351,31.9a10.82,10.82,0,0,0-1.37-2.62,11.81,11.81,0,0,0-1.76-2A6.33,6.33,0,0,0,346,26.11l-6.26,9.5Z" transform="translate(-3.99 -0.55)"/><path d="M364.2,26.76h-6.34V24.88a20,20,0,0,0,4-.79A11.92,11.92,0,0,0,366,21.82a12.74,12.74,0,0,0,3.34-4.46A17.15,17.15,0,0,0,370.75,10h2.67V23.73h12.16l-2.23,3h-9.93V47.35a48.85,48.85,0,0,0,.32,6.8c.22,1.37.66,2.2,1.33,2.49a11.94,11.94,0,0,0,2.81-.54c1-.32,2-.65,2.92-1A25.19,25.19,0,0,0,383.32,54a14.56,14.56,0,0,0,1.62-.93l.93,1.65a19.19,19.19,0,0,1-3,2.05,40.83,40.83,0,0,1-4.29,2.13,46.59,46.59,0,0,1-4.68,1.73,14.3,14.3,0,0,1-4.14.72,3.18,3.18,0,0,1-1.9-.72,10.11,10.11,0,0,1-1.8-1.73,11.15,11.15,0,0,1-1.34-2,3.72,3.72,0,0,1-.5-1.55Z" transform="translate(-3.99 -0.55)"/><path d="M387.31,23.73h6.84V22.29a27,27,0,0,1,.94-7.41,16.94,16.94,0,0,1,2.66-5.62,11.81,11.81,0,0,1,4.14-3.53,11.93,11.93,0,0,1,5.44-1.22,17.84,17.84,0,0,1,4.57.5,12.62,12.62,0,0,1,2.7,1,2.06,2.06,0,0,0,1.51-1.08h1.44a15.61,15.61,0,0,0-2,5.11,27,27,0,0,0-.47,5.76h-1.36a14.61,14.61,0,0,0-3.57-6.26A9.3,9.3,0,0,0,405,7a18.58,18.58,0,0,0-1.29,5.11,65.88,65.88,0,0,0-.43,8.42v3.24h10.36l-2.16,3h-8.2V54.4c0,1.88.74,3.09,2.23,3.64a18.17,18.17,0,0,0,6.12.83v1.94q-2.59-.29-5.76-.39c-2.12-.08-4.08-.11-5.91-.11l-3.09,0-3.31.08c-1.11,0-2.2.07-3.28.14s-2.05.16-2.92.25V58.87a12,12,0,0,0,5.19-.83c1.05-.55,1.58-1.76,1.58-3.64V26.76h-6.84Z" transform="translate(-3.99 -0.55)"/><path d="M440,59.66l-2,.9a11.1,11.1,0,0,1-1.34.5,4.79,4.79,0,0,1-1.22.22c-.43,0-1,0-1.66,0A18.78,18.78,0,0,1,426.66,60a15.42,15.42,0,0,1-5.58-3.78,17.31,17.31,0,0,1-3.6-5.86,21.18,21.18,0,0,1-1.3-7.53,19.76,19.76,0,0,1,1.12-6.91A21.53,21.53,0,0,1,420,30.64a18.1,18.1,0,0,1,3.52-3.7,17.74,17.74,0,0,1,3.5-2.2l3-1.44,2-.9a13,13,0,0,1,1.33-.5,5.26,5.26,0,0,1,1.23-.22c.43,0,1,0,1.65,0A18.5,18.5,0,0,1,443.44,23,16.13,16.13,0,0,1,449,26.83a17.67,17.67,0,0,1,3.6,5.87,21.36,21.36,0,0,1,1.29,7.59,19.71,19.71,0,0,1-1.11,6.84A20.14,20.14,0,0,1,450,52.35,19.64,19.64,0,0,1,446.5,56a17.29,17.29,0,0,1-3.46,2.2Zm1.22-2.88a17.52,17.52,0,0,0,2.52-6.55,41.22,41.22,0,0,0,.79-8,26.76,26.76,0,0,0-.75-6.52,15.64,15.64,0,0,0-2.27-5.15,10.8,10.8,0,0,0-3.85-3.38A11.84,11.84,0,0,0,432.1,26c-.53,0-1.06,0-1.59.08s-1.08.12-1.65.21a12.27,12.27,0,0,0-1.48,2.92,28.6,28.6,0,0,0-1,3.6,29.18,29.18,0,0,0-.62,4c-.12,1.4-.18,2.74-.18,4a27,27,0,0,0,.76,6.58,15.35,15.35,0,0,0,2.27,5.15,10.36,10.36,0,0,0,3.85,3.35,12,12,0,0,0,5.51,1.19c.53,0,1.07,0,1.62-.07S440.66,56.88,441.24,56.78Z" transform="translate(-3.99 -0.55)"/><path d="M468.53,60.31c-1.83,0-3.81,0-5.94.11s-4.07.2-5.8.39V58.87c1.3,0,2.39,0,3.28-.07a5.52,5.52,0,0,0,2.19-.51A2.59,2.59,0,0,0,463.52,57a6.43,6.43,0,0,0,.4-2.56V14.23a4.9,4.9,0,0,0-.4-2.09c-.26-.58-.95-.86-2-.86h-4.89V9.84a27,27,0,0,0,4.64-.44A34.61,34.61,0,0,0,466,8.22a25.49,25.49,0,0,0,4.25-1.8,8.6,8.6,0,0,0,2.85-2.34V54.4a6.64,6.64,0,0,0,.39,2.56,2.64,2.64,0,0,0,1.26,1.33,5.62,5.62,0,0,0,2.2.51c.89,0,2,.07,3.27.07v1.94c-1.72-.19-3.65-.32-5.76-.39S470.4,60.31,468.53,60.31Z" transform="translate(-3.99 -0.55)"/><path d="M493.8,60.31c-1.83,0-3.81,0-5.94.11s-4.07.2-5.8.39V58.87c1.3,0,2.39,0,3.28-.07a5.62,5.62,0,0,0,2.2-.51A2.68,2.68,0,0,0,488.8,57a6.64,6.64,0,0,0,.39-2.56V30.14a4.77,4.77,0,0,0-.39-2.05c-.27-.55-.95-.83-2.06-.83h-4.89V25.75a40.79,40.79,0,0,0,4.64-.29,34.61,34.61,0,0,0,4.83-.9,24.77,24.77,0,0,0,4.24-1.51,7.22,7.22,0,0,0,2.85-2.2V54.4A6.64,6.64,0,0,0,498.8,57a2.68,2.68,0,0,0,1.26,1.33,5.62,5.62,0,0,0,2.2.51c.89,0,2,.07,3.28.07v1.94q-2.6-.29-5.76-.39C497.66,60.34,495.67,60.31,493.8,60.31Zm-.22-56.74a16.12,16.12,0,0,0,3.06,4.5,11.33,11.33,0,0,0,5.22,3.13A7.46,7.46,0,0,0,499,12a9.29,9.29,0,0,0-2.27,1.73,15,15,0,0,0-1.8,2.3,21.17,21.17,0,0,0-1.37,2.56,21.08,21.08,0,0,0-1.36-2.56,15,15,0,0,0-1.8-2.3A9.49,9.49,0,0,0,488.15,12a7.38,7.38,0,0,0-2.77-.83,11.13,11.13,0,0,0,5.11-3.13A17.93,17.93,0,0,0,493.58,3.57Z" transform="translate(-3.99 -0.55)"/><path d="M531.89,59.66l-2,.9a11.1,11.1,0,0,1-1.34.5,4.79,4.79,0,0,1-1.22.22c-.43,0-1,0-1.66,0A18.78,18.78,0,0,1,518.53,60,15.51,15.51,0,0,1,513,56.2a17.31,17.31,0,0,1-3.6-5.86,21.18,21.18,0,0,1-1.3-7.53,20,20,0,0,1,1.12-6.91,21.53,21.53,0,0,1,2.74-5.26,18.59,18.59,0,0,1,7-5.9l3-1.44,2-.9a13,13,0,0,1,1.33-.5,5.36,5.36,0,0,1,1.23-.22c.43,0,1,0,1.65,0A18.5,18.5,0,0,1,535.31,23a16.13,16.13,0,0,1,5.58,3.82,17.67,17.67,0,0,1,3.6,5.87,21.36,21.36,0,0,1,1.29,7.59,19.71,19.71,0,0,1-1.11,6.84,20.14,20.14,0,0,1-2.78,5.22A19.64,19.64,0,0,1,538.37,56a17,17,0,0,1-3.46,2.2Zm1.22-2.88a17.52,17.52,0,0,0,2.52-6.55,41.22,41.22,0,0,0,.79-8,26.76,26.76,0,0,0-.75-6.52,15.64,15.64,0,0,0-2.27-5.15,10.71,10.71,0,0,0-3.85-3.38A11.84,11.84,0,0,0,524,26c-.53,0-1.06,0-1.59.08s-1.08.12-1.65.21a12.27,12.27,0,0,0-1.48,2.92,28.6,28.6,0,0,0-1,3.6,29.18,29.18,0,0,0-.62,4c-.12,1.4-.18,2.74-.18,4a27,27,0,0,0,.76,6.58,15.35,15.35,0,0,0,2.27,5.15,10.36,10.36,0,0,0,3.85,3.35,12.06,12.06,0,0,0,5.51,1.19c.53,0,1.07,0,1.62-.07S532.53,56.88,533.11,56.78Z" transform="translate(-3.99 -0.55)"/></svg>